# Blender3D v249 OBJ File: escena.blend
# www.blender3d.org
mtllib bar.mtl
v 4.140301 -3.501955 -4.813081
v 4.140301 -3.501955 -3.041885
v -7.400113 -3.569463 -3.020735
v -7.400110 -3.569463 -4.834231
v 4.140304 -0.845301 -4.813081
v 4.140298 -0.845301 -3.041885
v -7.400115 -0.777793 -3.020736
v -7.400112 -0.777793 -4.834231
vt 0.000000 0.000000
vt 1.000000 0.000000
vt 1.000000 1.000000
vt 0.000000 1.000000
vn 0.005850 -0.999983 0.000000
vn 0.005850 0.999983 -0.000000
vn 1.000000 -0.000000 0.000002
vn 0.001833 0.000000 0.999998
vn -1.000000 -0.000001 -0.000002
vn 0.001833 -0.000000 -0.999998
usemtl (null)
s off
f 1/1/1 2/2/1 3/3/1 4/4/1
f 5/1/2 8/2/2 7/3/2 6/4/2
f 1/1/3 5/2/3 6/3/3 2/4/3
f 2/1/4 6/2/4 7/3/4 3/4/4
f 3/1/5 7/2/5 8/3/5 4/4/5
f 5/1/6 1/2/6 4/3/6 8/4/6
