# Blender3D v249 OBJ File: escena.blend
# www.blender3d.org
mtllib vaso1.mtl
v -5.846321 -0.758766 -3.590829
v -5.839575 -0.758766 -3.582610
v -5.834563 -0.758766 -3.573232
v -5.831476 -0.758766 -3.563057
v -5.830434 -0.758766 -3.552475
v -5.831476 -0.758766 -3.541893
v -5.834563 -0.758766 -3.531718
v -5.839575 -0.758766 -3.522340
v -5.846321 -0.758766 -3.514121
v -5.854540 -0.758766 -3.507375
v -5.863918 -0.758766 -3.502363
v -5.874093 -0.758766 -3.499276
v -5.884675 -0.758766 -3.498234
v -5.895257 -0.758766 -3.499276
v -5.905432 -0.758766 -3.502363
v -5.914810 -0.758766 -3.507375
v -5.923029 -0.758766 -3.514121
v -5.929775 -0.758766 -3.522340
v -5.934787 -0.758766 -3.531718
v -5.937874 -0.758766 -3.541893
v -5.938916 -0.758766 -3.552475
v -5.937874 -0.758766 -3.563057
v -5.934787 -0.758766 -3.573232
v -5.929775 -0.758766 -3.582610
v -5.923029 -0.758766 -3.590829
v -5.914810 -0.758766 -3.597575
v -5.905432 -0.758766 -3.602587
v -5.895257 -0.758766 -3.605674
v -5.884675 -0.758766 -3.606716
v -5.874093 -0.758766 -3.605674
v -5.863918 -0.758766 -3.602587
v -5.854540 -0.758766 -3.597575
v -5.879958 -0.509423 -3.634522
v -5.871597 -0.509423 -3.624335
v -5.865385 -0.509423 -3.612712
v -5.861559 -0.509422 -3.600101
v -5.860267 -0.509422 -3.586985
v -5.861559 -0.509422 -3.573870
v -5.865385 -0.509422 -3.561258
v -5.871597 -0.509422 -3.549635
v -5.879958 -0.509422 -3.539448
v -5.890145 -0.509422 -3.531087
v -5.901768 -0.509422 -3.524875
v -5.914380 -0.509422 -3.521049
v -5.927495 -0.509422 -3.519758
v -5.940610 -0.509422 -3.521049
v -5.953222 -0.509422 -3.524875
v -5.964845 -0.509422 -3.531087
v -5.975032 -0.509422 -3.539448
v -5.983393 -0.509422 -3.549635
v -5.989605 -0.509422 -3.561258
v -5.993431 -0.509422 -3.573870
v -5.994722 -0.509422 -3.586985
v -5.993431 -0.509422 -3.600101
v -5.989605 -0.509423 -3.612712
v -5.983393 -0.509423 -3.624335
v -5.975032 -0.509423 -3.634522
v -5.964845 -0.509423 -3.642883
v -5.953222 -0.509423 -3.649096
v -5.940610 -0.509423 -3.652921
v -5.927495 -0.509423 -3.654213
v -5.914379 -0.509423 -3.652921
v -5.901768 -0.509423 -3.649095
v -5.890145 -0.509423 -3.642883
vt 0.887680 0.487022
vt 0.857257 0.475505
vt 0.856893 0.000000
vt 0.894600 0.014274
vt 0.917828 0.498413
vt 0.931966 0.028393
vt 0.946543 0.509242
vt 0.967556 0.041814
vt 0.972720 0.519092
vt 1.000000 0.054022
vt 0.555990 0.004920
vt 0.583090 0.009752
vt 0.608264 0.474888
vt 0.574674 0.468900
vt 0.525883 0.001628
vt 0.537359 0.464819
vt 0.493928 0.000000
vt 0.497753 0.462802
vt 0.461352 0.000100
vt 0.457378 0.462926
vt 0.429407 0.001923
vt 0.417785 0.465186
vt 0.399321 0.005401
vt 0.380496 0.469496
vt 0.372251 0.010398
vt 0.346944 0.475689
vt 0.349235 0.016723
vt 0.318418 0.483529
vt 0.830432 0.009441
vt 0.855844 0.000000
vt 0.856893 0.468111
vt 0.825398 0.479812
vt 0.802045 0.019462
vt 0.790214 0.492232
vt 0.771773 0.029678
vt 0.752694 0.504895
vt 0.740779 0.039698
vt 0.714280 0.517313
vt 0.710254 0.049135
vt 0.676447 0.529010
vt 0.681372 0.057628
vt 0.640649 0.539536
vt 0.655242 0.064849
vt 0.608264 0.548486
vt 0.053827 0.506309
vt 0.030762 0.516111
vt 0.000000 0.031422
vt 0.028587 0.019273
vt 0.080937 0.498636
vt 0.062187 0.009762
vt 0.111049 0.493385
vt 0.099510 0.003255
vt 0.143007 0.490759
vt 0.139119 0.000000
vt 0.175583 0.490859
vt 0.179495 0.000124
vt 0.207525 0.493681
vt 0.219084 0.003621
vt 0.237605 0.499116
vt 0.256365 0.010358
vt 0.264667 0.506956
vt 0.289906 0.020074
vt 0.287671 0.516899
vt 0.318418 0.032398
vt 0.339309 0.977725
vt 0.319326 0.968940
vt 0.343187 0.494417
vt 0.363238 0.988213
vt 0.372845 0.507416
vt 0.390192 1.000000
vt 0.406252 0.522025
vt 0.608264 0.954294
vt 0.601452 0.483529
vt 0.571096 0.495335
vt 0.570639 0.968927
vn 0.772981 -0.006888 -0.634392
vn 0.881412 0.034362 -0.471097
vn 0.954443 0.072136 -0.289544
vn 0.989693 0.104926 -0.097462
vn 0.986546 0.131485 0.097152
vn 0.945972 0.150933 0.286977
vn 0.870187 0.162667 0.465097
vn 0.762226 0.166368 0.625566
vn 0.626018 0.161934 0.762810
vn 0.466102 0.149484 0.872011
vn 0.287839 0.129366 0.948901
vn 0.097509 0.102201 0.989973
vn -0.097790 0.068908 0.992819
vn -0.290147 0.030747 0.956488
vn -0.471371 -0.010724 0.881870
vn -0.633479 -0.053712 0.771893
vn -0.769414 -0.096328 0.631445
vn -0.873640 -0.136746 0.466962
vn -0.942457 -0.173327 0.285888
vn -0.974103 -0.204737 0.095946
vn -0.968511 -0.229968 -0.095395
vn -0.926970 -0.248314 -0.281189
vn -0.851748 -0.259340 -0.455266
vn -0.745840 -0.262809 -0.612090
vn -0.612807 -0.258652 -0.746704
vn -0.456798 -0.246953 -0.854605
vn -0.282641 -0.227962 -0.931744
vn -0.095997 -0.202141 -0.974640
vn 0.096602 -0.170213 -0.980661
vn 0.287696 -0.133227 -0.948410
vn 0.469367 -0.092542 -0.878140
vn 0.633617 -0.049809 -0.772041
usemtl (null)
s off
f 2/1/1 1/2/1 33/3/1 34/4/1
f 3/5/2 2/1/2 34/4/2 35/6/2
f 4/7/3 3/5/3 35/6/3 36/8/3
f 5/9/4 4/7/4 36/8/4 37/10/4
f 6/11/5 5/12/5 37/13/5 38/14/5
f 7/15/6 6/11/6 38/14/6 39/16/6
f 8/17/7 7/15/7 39/16/7 40/18/7
f 9/19/8 8/17/8 40/18/8 41/20/8
f 10/21/9 9/19/9 41/20/9 42/22/9
f 11/23/10 10/21/10 42/22/10 43/24/10
f 12/25/11 11/23/11 43/24/11 44/26/11
f 13/27/12 12/25/12 44/26/12 45/28/12
f 14/29/13 13/30/13 45/31/13 46/32/13
f 15/33/14 14/29/14 46/32/14 47/34/14
f 16/35/15 15/33/15 47/34/15 48/36/15
f 17/37/16 16/35/16 48/36/16 49/38/16
f 18/39/17 17/37/17 49/38/17 50/40/17
f 19/41/18 18/39/18 50/40/18 51/42/18
f 20/43/19 19/41/19 51/42/19 52/44/19
f 21/45/20 20/46/20 52/47/20 53/48/20
f 22/49/21 21/45/21 53/48/21 54/50/21
f 23/51/22 22/49/22 54/50/22 55/52/22
f 24/53/23 23/51/23 55/52/23 56/54/23
f 25/55/24 24/53/24 56/54/24 57/56/24
f 26/57/25 25/55/25 57/56/25 58/58/25
f 27/59/26 26/57/26 58/58/26 59/60/26
f 28/61/27 27/59/27 59/60/27 60/62/27
f 29/63/28 28/61/28 60/62/28 61/64/28
f 30/65/29 29/66/29 61/28/29 62/67/29
f 31/68/30 30/65/30 62/67/30 63/69/30
f 32/70/31 31/68/31 63/69/31 64/71/31
f 33/72/32 1/73/32 32/74/32 64/75/32
