# Blender3D v249 OBJ File: escena.blend
# www.blender3d.org
mtllib mesa.mtl
v -3.107288 -0.286149 0.102217
v -3.107288 -0.286149 2.508463
v 1.934896 -0.286149 2.508463
v 1.934886 -0.286149 0.102217
v -3.107288 0.158219 0.102219
v -3.107288 0.158219 2.508463
v 1.934896 0.158219 2.508460
v 1.934896 0.158219 0.102216
v -3.107288 -0.286149 -0.054925
v 1.934886 -0.286149 -0.054925
v -3.107288 0.158219 -0.054923
v 1.934896 0.158219 -0.054926
v -3.070328 -0.286149 -0.054925
v -3.070328 -0.286149 0.102217
v -3.070328 -0.286149 -0.054925
v -3.070328 0.158219 -0.054923
v -3.070328 -0.286149 0.102217
v -3.070328 -0.286149 -0.054925
v -3.070328 0.158219 -0.054923
v -3.107288 0.158219 -0.054923
v -3.070328 0.158219 0.102219
v -3.070328 -0.286149 0.102217
v -3.070328 -0.286149 -0.054925
v -3.107288 0.158219 -0.054923
v -3.070328 0.158219 0.102219
v -3.070328 -0.286149 0.102217
v -3.070328 -0.286149 -0.054925
v -3.107288 0.158219 -0.054923
v -3.070328 0.158219 0.102219
v -3.070328 -0.286149 0.102217
v -3.070328 -0.286149 -0.054925
v -3.070328 0.158219 0.102219
v -3.070328 0.158219 0.102219
v -3.070328 0.158219 -0.054923
v -3.070328 0.158219 -0.054923
v -3.070328 -0.286149 -0.054925
v -3.070328 -0.286149 -0.054925
v -3.070328 0.158219 -0.054923
v -3.107288 0.158219 -0.054923
v -3.107288 0.158219 -0.054923
v -3.107288 0.158219 -0.054923
v -3.107288 0.158219 -0.054923
v 1.748865 -0.286145 0.102217
v 1.748874 0.158223 0.102216
v 1.748865 -0.286145 -0.054925
v 1.748874 0.158223 -0.054926
v 1.934853 -1.598683 0.102212
v 1.934853 -1.598682 -0.054930
v 1.748832 -1.598678 0.102212
v 1.748832 -1.598678 -0.054930
v -2.986007 -0.286149 0.102217
v -2.917016 0.158219 0.102219
v -2.986007 -0.286149 -0.054925
v -2.917016 0.158219 -0.054923
v -3.107288 -1.602317 0.102213
v -3.107288 -1.602317 -0.054929
v -2.986007 -1.602317 0.102213
v -2.986007 -1.602317 -0.054929
v -3.107288 -0.286148 2.731833
v 1.934896 -0.286148 2.731833
v -3.107288 0.158220 2.731833
v 1.934896 0.158220 2.731829
v 1.752033 -0.286149 2.508463
v 1.752033 0.158219 2.508460
v 1.752033 -0.286148 2.731833
v 1.752033 0.158220 2.731829
v 1.934896 -1.602317 2.731838
v 1.934896 -1.602318 2.508469
v 1.752033 -1.602318 2.508469
v 1.752033 -1.602317 2.731838
v -2.911048 -0.286149 2.508463
v -2.911048 0.158219 2.508463
v -2.911048 -0.286148 2.731833
v -2.911048 0.158220 2.731833
v -3.107288 -1.609305 2.731839
v -3.107288 -1.609306 2.508470
v -2.911048 -1.609306 2.508470
v -2.911048 -1.609305 2.731839
v 1.934896 0.383380 2.731828
v 1.934896 0.383379 2.508459
v 1.752033 0.383379 2.508459
v 1.752033 0.383380 2.731828
v -3.107288 -1.384145 2.731838
v -3.107288 -1.384146 2.508469
v -2.911048 -1.384146 2.508469
v -2.911048 -1.384145 2.731838
v 3.476491 2.620710 2.978267
v 1.934896 0.158219 0.102216
v 1.934896 0.158219 -0.054926
v 1.748874 0.158223 0.102216
v 1.748874 0.158223 -0.054926
v 1.934896 0.158210 -0.055127
v 1.752033 0.158210 -0.055127
v 1.934896 0.383370 -0.055128
v 1.752033 0.383370 -0.055128
v 1.934896 0.158219 0.102216
v 1.748874 0.158223 0.102216
v 1.748874 0.158223 -0.054926
v 1.748874 0.158223 0.102216
v 1.934896 0.158219 0.102216
v 1.748874 0.158223 -0.054926
v 1.934896 0.158219 -0.054926
v 1.934896 0.158219 -0.054926
v 1.748874 0.158223 0.102216
v 1.934896 0.158219 0.102216
v 1.748874 0.158223 -0.054926
v 1.934896 0.158219 0.102216
v 1.934896 0.158219 -0.054926
v 1.934896 0.158219 -0.054926
v 1.934896 0.158219 -0.054926
v 1.934896 0.158219 -0.054926
v 1.748874 0.158223 0.102216
v 1.934896 0.158219 0.102216
v 1.748874 0.158223 -0.054926
v 1.934896 0.158219 -0.054926
v 1.934896 0.158219 -0.054926
v 1.934896 0.158219 -0.054926
v 1.934896 0.158219 -0.054926
v 1.934896 0.158219 -0.054926
v 1.934896 0.158219 -0.054926
v 1.934896 0.158219 -0.054926
v 1.934896 0.158219 -0.054926
v 1.887723 0.094597 0.024900
v 1.704860 0.094597 0.024900
v 1.887723 0.319758 0.024899
v 1.704860 0.319758 0.024899
v -3.107288 0.372955 2.508463
v -3.107288 0.372956 2.731832
v -2.911048 0.372955 2.508463
v -2.911048 0.372956 2.731832
v 1.737340 0.158025 2.508463
v 1.737340 0.158026 2.731833
v 1.737340 0.372761 2.508463
v 1.737340 0.372762 2.731832
v -3.107288 0.371217 0.102220
v -3.107288 0.371218 -0.054922
v -2.917016 0.371217 0.102220
v -2.917016 0.371218 -0.054922
v -3.107288 0.158207 2.503653
v -2.917016 0.158207 2.503653
v -3.107288 0.371206 2.503654
v -2.917016 0.371206 2.503654
v 1.757931 0.158219 0.102219
v 1.757931 0.158219 -0.054923
v 1.757931 0.371217 0.102220
v 1.757931 0.371218 -0.054922
vt 0.567182 0.662774
vt 0.285402 0.663744
vt 0.283591 0.000969
vt 0.565371 0.000000
vt 0.283591 0.000971
vt 0.281780 0.663746
vt 0.000000 0.662775
vt 0.001811 0.000000
vt 0.758644 0.611281
vt 0.810681 0.611102
vt 0.811545 0.927392
vt 0.759508 0.927571
vt 0.568994 0.000000
vt 0.621031 0.000179
vt 0.619219 0.662954
vt 0.567182 0.662775
vt 0.786471 0.000179
vt 0.838508 0.000000
vt 0.839372 0.316290
vt 0.787335 0.316469
vt 0.673068 0.662953
vt 0.621031 0.662774
vt 0.622842 0.000000
vt 0.674879 0.000178
vt 0.921222 0.662837
vt 0.919411 0.000063
vt 0.937813 0.000000
vt 0.939624 0.662774
vt 0.941435 0.662838
vt 0.939624 0.000063
vt 0.958026 0.000000
vt 0.959837 0.662775
vt 0.161310 0.722156
vt 0.161469 0.663746
vt 0.179871 0.663809
vt 0.179712 0.722219
vt 0.104636 0.663809
vt 0.104476 0.722219
vt 0.086074 0.722156
vt 0.086234 0.663746
vt 0.000000 0.000000
vt 0.674813 0.024630
vt 0.622776 0.024452
vt 0.921155 0.638386
vt 0.939557 0.638322
vt 0.958093 0.024452
vt 0.939691 0.024515
vt 0.064291 0.722230
vt 0.064132 0.663820
vt 0.085916 0.663746
vt 0.435683 0.663744
vt 0.454084 0.663807
vt 0.453613 0.836335
vt 0.435212 0.836271
vt 0.517097 0.836271
vt 0.495313 0.836346
vt 0.494845 0.663819
vt 0.516629 0.663744
vt 0.283591 0.836273
vt 0.265189 0.836336
vt 0.264718 0.663809
vt 0.283120 0.663745
vt 0.360775 0.663744
vt 0.382559 0.663819
vt 0.382091 0.836346
vt 0.360307 0.836272
vt 0.621074 0.646832
vt 0.673136 0.637943
vt 0.937856 0.015942
vt 0.919454 0.016005
vt 0.941367 0.637828
vt 0.959769 0.637765
vt 0.223566 0.663746
vt 0.223726 0.722156
vt 0.201445 0.722233
vt 0.209364 0.663795
vt 0.472959 0.836749
vt 0.454557 0.836813
vt 0.454084 0.663808
vt 0.472486 0.663744
vt 0.250516 0.663746
vt 0.264718 0.663794
vt 0.264245 0.836800
vt 0.250043 0.836751
vt 0.014675 0.836751
vt 0.000473 0.836800
vt 0.000000 0.663795
vt 0.014202 0.663746
vt 0.404918 0.663744
vt 0.423320 0.663807
vt 0.422847 0.836813
vt 0.404446 0.836749
vt 0.702848 0.000090
vt 0.701036 0.662865
vt 0.674879 0.662775
vt 0.676691 0.000000
vt 0.729005 0.000000
vt 0.730816 0.662775
vt 0.704659 0.662865
vt 0.014835 0.722246
vt 0.014675 0.663836
vt 0.040833 0.663746
vt 0.040992 0.722156
vt 0.223886 0.663746
vt 0.250043 0.663836
vt 0.249883 0.722246
vt 0.567248 0.638739
vt 0.619285 0.638918
vt 0.674945 0.638739
vt 0.701102 0.638829
vt 0.729071 0.024037
vt 0.702914 0.024127
vt 0.179871 0.722156
vt 0.180031 0.663746
vt 0.201445 0.663819
vt 0.201285 0.722230
vt 0.336852 0.836749
vt 0.310695 0.836839
vt 0.310223 0.663834
vt 0.336380 0.663744
vt 0.494845 0.836749
vt 0.473432 0.836823
vt 0.472959 0.663818
vt 0.494373 0.663744
vt 0.383032 0.663744
vt 0.404446 0.663818
vt 0.403973 0.836823
vt 0.382559 0.836749
vt 0.541025 0.663744
vt 0.567182 0.663834
vt 0.566710 0.836839
vt 0.540553 0.836749
vt 0.620960 0.025974
vt 0.568923 0.025795
vt 0.702777 0.025885
vt 0.676620 0.025795
vt 0.704588 0.637070
vt 0.730746 0.636980
vt 0.064132 0.663825
vt 0.063972 0.722235
vt 0.041152 0.663746
vt 0.284065 0.663744
vt 0.309748 0.837758
vt 0.283591 0.837668
vt 0.517572 0.663744
vt 0.540553 0.663823
vt 0.540077 0.837747
vt 0.517097 0.837668
vt 0.616958 0.836878
vt 0.590801 0.836968
vt 0.590326 0.663044
vt 0.616484 0.662954
vt 0.360307 0.837668
vt 0.337327 0.837747
vt 0.336852 0.663823
vt 0.359832 0.663744
vt 0.104636 0.693522
vt 0.130793 0.693432
vt 0.130874 0.723029
vt 0.104717 0.723119
vt 0.156486 0.752789
vt 0.135072 0.752715
vt 0.135153 0.723119
vt 0.156567 0.723192
vt 0.161229 0.723119
vt 0.135072 0.723029
vt 0.135153 0.693432
vt 0.161310 0.693522
vt 0.104636 0.723192
vt 0.126050 0.723119
vt 0.126131 0.752715
vt 0.104717 0.752789
vt 0.135072 0.663836
vt 0.161229 0.663746
vt 0.161310 0.693342
vt 0.226982 0.722325
vt 0.249962 0.722246
vt 0.250043 0.751842
vt 0.227063 0.751921
vt 0.104636 0.693342
vt 0.104717 0.663746
vt 0.130874 0.663836
vt 0.064051 0.751911
vt 0.041071 0.751831
vt 0.041152 0.722235
vt 0.064132 0.722314
vt 0.887580 0.951636
vt 0.866166 0.951563
vt 0.867087 0.614589
vt 0.888501 0.614663
vt 0.757724 0.948165
vt 0.731357 0.948074
vt 0.732276 0.611102
vt 0.758644 0.611193
vt 0.673958 1.000000
vt 0.652544 0.999926
vt 0.653465 0.662953
vt 0.674879 0.663027
vt 0.703529 0.662956
vt 0.729896 0.662865
vt 0.730816 0.999837
vt 0.704449 0.999928
vt 0.626412 0.700945
vt 0.626347 0.724981
vt 0.616958 0.731150
vt 0.617024 0.707113
vt 0.423400 0.701735
vt 0.423320 0.672138
vt 0.432685 0.663744
vt 0.432766 0.693341
vt 0.432708 0.707903
vt 0.432774 0.731940
vt 0.423385 0.725771
vt 0.423320 0.701735
vt 0.616958 0.692551
vt 0.617039 0.662954
vt 0.626404 0.671348
vt 0.626323 0.700945
vt 0.176218 0.751591
vt 0.176298 0.722230
vt 0.201445 0.722316
vt 0.201364 0.751677
vt 0.203924 0.722325
vt 0.226905 0.722246
vt 0.226982 0.750472
vt 0.204001 0.750551
vt 0.037656 0.750551
vt 0.014675 0.750472
vt 0.014753 0.722246
vt 0.037733 0.722325
vt 0.064212 0.751678
vt 0.064132 0.722317
vt 0.089279 0.722230
vt 0.089359 0.751591
vt 0.732486 0.000000
vt 0.758644 0.000090
vt 0.756974 0.611102
vt 0.730816 0.611012
vt 0.839372 0.000086
vt 0.864519 0.000000
vt 0.866166 0.611012
vt 0.841020 0.611099
vt 0.837725 0.927568
vt 0.812579 0.927481
vt 0.814226 0.316469
vt 0.839372 0.316556
vt 0.784801 0.611102
vt 0.758644 0.611012
vt 0.760314 0.000000
vt 0.786471 0.000090
vt 0.156567 0.751243
vt 0.174968 0.751180
vt 0.175045 0.779177
vt 0.156643 0.779241
vt 0.037656 0.778626
vt 0.015375 0.778549
vt 0.015451 0.750551
vt 0.037733 0.750628
vt 0.156567 0.751116
vt 0.156643 0.723119
vt 0.175045 0.723182
vt 0.203924 0.750628
vt 0.226206 0.750551
vt 0.226282 0.778549
vt 0.204001 0.778626
vt 0.652544 0.978612
vt 0.630263 0.978689
vt 0.629400 0.663030
vt 0.651681 0.662953
vt 0.699822 0.978609
vt 0.674879 0.978523
vt 0.675740 0.662865
vt 0.700683 0.662951
vt 0.590326 0.978613
vt 0.568045 0.978690
vt 0.567182 0.663031
vt 0.589463 0.662954
vt 0.839372 0.611185
vt 0.864315 0.611099
vt 0.865177 0.926757
vt 0.840234 0.926842
vt 0.959837 0.000063
vt 0.978239 0.000000
vt 0.979919 0.614503
vt 0.961517 0.614567
vt 0.892788 0.614503
vt 0.867846 0.614589
vt 0.866166 0.000086
vt 0.891109 0.000000
vt 1.000000 0.614503
vt 0.981598 0.614567
vt 0.979919 0.000063
vt 0.998320 0.000000
vt 0.892788 0.000086
vt 0.917731 0.000000
vt 0.919411 0.614503
vt 0.894468 0.614589
vn 0.000000 1.000000 -0.000000
vn 0.000000 -1.000000 0.000000
vn 1.000000 0.000000 0.000000
vn -0.000000 -0.000003 -1.000000
vn -1.000000 0.000011 0.000002
vn 0.000000 -0.000003 1.000000
vn 0.000000 -1.000000 -0.000003
vn 0.000000 1.000000 0.000003
vn -1.000000 0.000000 0.000000
vn 1.000000 -0.000022 -0.000000
vn 0.000000 0.000000 0.000000
vn 0.000000 0.000000 1.000000
vn -0.000021 -1.000000 -0.000003
vn 0.000021 1.000000 0.000003
vn -0.000000 -0.000000 -1.000000
vn -1.000000 0.000025 0.000000
vn 0.000000 0.000003 -1.000000
vn 1.000000 -0.000025 -0.000000
vn 0.000000 -0.000006 1.000000
vn 0.000000 0.000006 -1.000000
vn 0.000000 -1.000000 0.000004
vn -0.000000 1.000000 -0.000004
vn 0.000000 -0.000007 -1.000000
vn 0.000000 0.000007 1.000000
vn 0.000000 0.000004 1.000000
vn 0.000000 -0.000004 -1.000000
vn 0.000000 0.000005 1.000000
vn 0.000000 -0.000005 -1.000000
vn 0.000000 0.782816 0.622253
vn -0.861472 -0.000002 -0.507805
vn 0.000000 -0.782816 -0.622253
vn 0.861472 0.000002 0.507804
vn 0.000000 0.000003 1.000000
vn -0.000042 -1.000000 0.000004
vn 0.000042 1.000000 -0.000004
vn 0.000000 0.000002 -1.000000
vn 0.000000 -0.000002 1.000000
vn 0.000000 -1.000000 -0.000005
vn 0.000000 1.000000 0.000005
usemtl (null)
s off
f 1/1/1 2/2/1 3/3/1 4/4/1
f 5/5/2 8/6/2 7/7/2 6/8/2
f 1/9/3 5/10/3 6/11/3 2/12/3
f 2/13/4 6/14/4 7/15/4 3/16/4
f 3/17/5 7/18/5 8/19/5 4/20/5
f 5/21/6 1/22/6 4/23/6 8/24/6
f 4/25/7 1/26/7 9/27/7 10/28/7
f 5/29/8 8/30/8 12/31/8 11/32/8
f 1/33/9 5/34/9 11/35/9 9/36/9
f 8/37/10 4/38/10 10/39/10 12/40/10
f 18/41/11 15/41/11 37/41/11 36/41/11
f 19/41/11 16/41/11 34/41/11 38/41/11
f 24/41/11 20/41/11 39/41/11 41/41/11
f 28/41/11 24/41/11 41/41/11 42/41/11
f 4/23/12 8/24/12 44/42/12 43/43/12
f 10/28/13 4/25/13 43/44/13 45/45/13
f 8/30/14 12/31/14 46/46/14 44/47/14
f 12/48/15 10/49/15 45/50/15 46/39/15
f 4/51/16 10/52/16 48/53/16 47/54/16
f 43/55/17 4/56/17 47/57/17 49/58/17
f 45/59/18 43/60/18 49/61/18 50/62/18
f 10/63/6 45/64/6 50/65/6 48/66/6
f 5/21/19 1/22/19 51/67/19 52/68/19
f 1/26/7 9/27/7 53/69/7 51/70/7
f 11/32/8 5/29/8 52/71/8 54/72/8
f 9/73/20 11/74/20 54/75/20 53/76/20
f 9/77/3 1/78/3 55/79/3 56/80/3
f 1/81/17 51/82/17 57/83/17 55/84/17
f 53/85/6 9/86/6 56/87/6 58/88/6
f 51/89/9 53/90/9 58/91/9 57/92/9
f 2/93/21 3/94/21 60/95/21 59/96/21
f 7/97/22 6/98/22 61/99/22 62/93/22
f 6/100/9 2/101/9 59/102/9 61/103/9
f 3/74/3 7/104/3 62/105/3 60/106/3
f 7/15/23 3/16/23 63/107/23 64/108/23
f 3/94/21 60/95/21 65/109/21 63/110/21
f 62/93/22 7/97/22 64/111/22 66/112/22
f 60/113/24 62/114/24 66/115/24 65/116/24
f 60/117/9 3/118/9 68/119/9 67/120/9
f 3/121/25 63/122/25 69/123/25 68/124/25
f 65/125/26 60/126/26 67/127/26 70/128/26
f 63/129/3 65/130/3 70/131/3 69/132/3
f 2/13/15 6/14/15 72/133/15 71/134/15
f 59/96/21 2/93/21 71/135/21 73/136/21
f 6/98/22 61/99/22 74/137/22 72/138/22
f 61/139/12 59/140/12 73/103/12 74/141/12
f 2/142/3 59/119/3 75/143/3 76/144/3
f 71/145/27 2/146/27 76/147/27 77/148/27
f 73/149/9 71/150/9 77/151/9 78/152/9
f 59/153/28 73/154/28 78/155/28 75/156/28
f 7/157/9 62/158/9 79/159/9 80/160/9
f 64/161/25 7/162/25 80/163/25 81/164/25
f 66/165/3 64/166/3 81/167/3 82/168/3
f 62/169/26 66/170/26 82/171/26 79/172/26
f 76/173/9 75/174/9 83/175/9 84/167/9
f 77/176/26 76/177/26 84/178/26 85/179/26
f 78/158/3 77/180/3 85/181/3 86/182/3
f 75/183/25 78/184/25 86/185/25 83/186/25
f 12/41/11 8/41/11 88/41/11 89/41/11
f 8/41/11 44/41/11 90/41/11 88/41/11
f 46/41/11 12/41/11 89/41/11 91/41/11
f 44/41/11 46/41/11 91/41/11 90/41/11
f 7/187/21 64/188/21 93/189/21 92/190/21
f 80/191/3 7/192/3 92/193/3 94/194/3
f 81/195/22 80/196/22 94/197/22 95/198/22
f 64/199/9 81/200/9 95/201/9 93/202/9
f 44/41/11 8/41/11 96/41/11 97/41/11
f 46/41/11 44/41/11 97/41/11 98/41/11
f 97/41/11 96/41/11 100/41/11 99/41/11
f 98/41/11 97/41/11 99/41/11 101/41/11
f 89/41/11 12/41/11 102/41/11 103/41/11
f 99/41/11 100/41/11 105/41/11 104/41/11
f 101/41/11 99/41/11 104/41/11 106/41/11
f 89/41/11 88/41/11 107/41/11 108/41/11
f 12/41/11 89/41/11 108/41/11 109/41/11
f 102/41/11 12/41/11 109/41/11 110/41/11
f 103/41/11 102/41/11 110/41/11 111/41/11
f 89/41/11 103/41/11 111/41/11 108/41/11
f 104/41/11 105/41/11 113/41/11 112/41/11
f 106/41/11 104/41/11 112/41/11 114/41/11
f 102/41/11 103/41/11 116/41/11 115/41/11
f 109/41/11 108/41/11 118/41/11 117/41/11
f 115/41/11 116/41/11 120/41/11 119/41/11
f 117/41/11 118/41/11 122/41/11 121/41/11
f 92/203/29 93/204/29 124/205/29 123/206/29
f 94/207/30 92/208/30 123/209/30 125/210/30
f 95/211/31 94/212/31 125/213/31 126/214/31
f 93/215/32 95/216/32 126/217/32 124/218/32
f 61/219/3 6/220/3 127/221/3 128/222/3
f 6/223/33 72/224/33 129/225/33 127/226/33
f 74/227/4 61/228/4 128/229/4 130/230/4
f 72/231/9 74/232/9 130/233/9 129/234/9
f 74/235/34 72/236/34 131/237/34 132/238/34
f 72/239/4 129/240/4 133/241/4 131/242/4
f 130/243/33 74/244/33 132/245/33 134/246/33
f 129/247/35 130/248/35 134/249/35 133/250/35
f 5/251/3 11/252/3 136/253/3 135/254/3
f 52/255/36 5/256/36 135/257/36 137/258/36
f 54/252/9 52/259/9 137/260/9 138/261/9
f 11/262/37 54/263/37 138/264/37 136/265/37
f 5/266/38 52/267/38 140/268/38 139/269/38
f 135/270/9 5/271/9 139/272/9 141/273/9
f 137/274/39 135/275/39 141/276/39 142/277/39
f 52/278/3 137/279/3 142/280/3 140/281/3
f 52/282/7 54/283/7 144/284/7 143/285/7
f 137/286/37 52/287/37 143/288/37 145/289/37
f 138/290/8 137/291/8 145/292/8 146/293/8
f 54/294/36 138/295/36 146/296/36 144/297/36
f 13 15
f 14 17
f 13 23
f 21 25
f 22 26
f 23 27
f 25 29
f 26 30
f 27 31
f 32 33
f 34 35
f 11 40
f 39 40
